<svg width="20" height="20" viewBox="0 0 20 20" fill="none" xmlns="http://www.w3.org/2000/svg">
<path d="M17.1111 13.12C16.0089 13.12 14.9333 12.9422 13.9378 12.6133C13.8489 12.5778 13.7511 12.5689 13.6622 12.5689C13.4311 12.5689 13.2089 12.6578 13.0311 12.8267L11.0756 14.7822C8.56 13.4933 6.49778 11.44 5.21778 8.92444L7.17333 6.96889C7.42222 6.72 7.49333 6.37333 7.39556 6.06222C7.06667 5.06667 6.88889 4 6.88889 2.88889C6.88889 2.4 6.48889 2 6 2H2.88889C2.4 2 2 2.4 2 2.88889C2 11.2356 8.76444 18 17.1111 18C17.6 18 18 17.6 18 17.1111V14.0089C18 13.52 17.6 13.12 17.1111 13.12ZM3.80444 3.77778H5.13778C5.2 4.56889 5.33333 5.34222 5.54667 6.08L4.48 7.14667C4.11556 6.08 3.88444 4.95111 3.80444 3.77778ZM16.2222 16.1956C15.0489 16.1156 13.92 15.8844 12.8444 15.5289L13.9022 14.4711C14.6578 14.6844 15.4311 14.8178 16.2133 14.8711V16.1956H16.2222Z" fill="#D2242B"/>
</svg>
